<svg width="23" height="14" viewBox="0 0 23 14" fill="none" xmlns="http://www.w3.org/2000/svg">
<g clip-path="url(#clip0_1656_951)">
<path d="M16.2872 8.76429C18.0981 8.76429 19.9129 8.76798 21.7277 8.76429C22.3581 8.76429 22.8204 8.42066 22.9656 7.84425C22.9892 7.74244 22.9994 7.63817 22.9961 7.53388C22.9987 5.43517 22.9987 3.33647 22.9961 1.23776C22.9961 0.50617 22.4765 0.00366211 21.7277 0.00366211H10.8428C10.1054 0.00366211 9.5782 0.49139 9.5782 1.20081C9.57056 3.32661 9.57056 5.44995 9.5782 7.57083C9.5782 8.28025 10.0978 8.76429 10.8428 8.76429C12.6576 8.76798 14.4724 8.76429 16.2872 8.76429ZM11.8782 2.70464H20.6923V3.69857H11.8782V2.70464ZM13.0167 5.07677H19.5538V6.067H13.0167V5.07677Z" fill="white"/>
<path d="M3.10259 10.1979C1.8609 11.0662 1.90292 12.5331 2.70525 13.3571C3.50757 14.1811 4.87535 14.2217 5.74644 13.4014C6.52203 12.6735 6.77801 11.1291 5.39113 10.1869C5.90309 10.3605 6.30807 10.597 6.6099 10.9776C6.69777 11.0884 6.78947 11.1365 6.93083 11.1254C7.24412 11.1069 7.55741 11.1254 7.86306 11.0847C8.50874 10.9923 8.8908 10.5416 8.89462 9.90974C8.89844 9.39984 8.89844 8.88995 8.89844 8.37636C8.89844 6.53629 8.89716 4.695 8.89462 2.85247C8.89462 2.398 8.66156 2.17261 8.19545 2.17261H5.06256C4.60409 2.17261 4.41306 2.34996 4.34428 2.78596C4.18 3.83532 3.99661 4.88467 3.8285 5.93772C3.8094 6.07073 3.74445 6.10768 3.62601 6.12246L1.69279 6.35155C1.46737 6.37741 1.23814 6.39958 1.01272 6.44022C0.431993 6.53629 0.0193672 6.99446 0.00790501 7.57826C-0.00355625 8.36527 -0.00737762 9.15229 0.00790501 9.943C0.0193672 10.5896 0.531327 11.0736 1.19993 11.1106H1.27634C1.59345 11.1475 1.84561 11.0884 2.05957 10.8076C2.27352 10.5268 2.68615 10.3236 3.10259 10.1979ZM5.03581 6.08551C5.18864 5.16179 5.33764 4.26023 5.48664 3.36606H7.66056V6.08551H5.03581ZM3.1599 11.953C3.15838 11.8143 3.18533 11.6766 3.23918 11.548C3.29303 11.4195 3.37271 11.3025 3.47362 11.2038C3.57453 11.1052 3.69466 11.0269 3.82705 10.9735C3.95945 10.9201 4.10149 10.8926 4.24495 10.8926C4.38804 10.8906 4.5301 10.9162 4.66284 10.968C4.79558 11.0197 4.91633 11.0964 5.01805 11.1938C5.11978 11.2911 5.20043 11.4071 5.2553 11.5349C5.31017 11.6627 5.33816 11.7998 5.33764 11.9382C5.34146 12.511 4.86389 12.9876 4.2908 12.9913C3.71771 12.995 3.16372 12.5257 3.1599 11.953ZM7.03399 6.95012C7.09768 6.94766 7.16147 6.94889 7.22502 6.95382C7.40076 6.9649 7.50774 7.07205 7.51156 7.23463C7.51538 7.39721 7.4084 7.51175 7.23266 7.52283C7.09383 7.52961 6.95469 7.52714 6.81621 7.51544C6.64428 7.50066 6.56023 7.39721 6.56023 7.23093C6.55764 7.19558 6.56248 7.16008 6.57447 7.12658C6.58646 7.09308 6.60534 7.06228 6.62998 7.03603C6.65461 7.00979 6.6845 6.98864 6.71782 6.97388C6.75114 6.95911 6.78721 6.95103 6.82385 6.95012C6.89385 6.94643 6.96399 6.94643 7.03399 6.95012Z" fill="white"/>
<path d="M15.4613 10.2644C14.3189 11.166 14.4565 12.7326 15.2932 13.4494C16.1299 14.1662 17.448 14.1551 18.2923 13.3681C19.0717 12.6402 19.1482 10.9554 17.9332 10.2053C18.407 10.3605 18.7967 10.6339 19.1214 10.996C19.1504 11.034 19.1885 11.0645 19.2324 11.0851C19.2764 11.1057 19.3248 11.1157 19.3736 11.1142C19.5531 11.1069 19.7289 11.1253 19.9085 11.1253C20.6764 11.1253 21.2189 10.6043 21.2266 9.86167V9.49957H20.3058C19.1749 9.49957 18.044 9.49587 16.9093 9.49957L9.92141 9.51804C9.58902 9.52174 9.56992 9.53282 9.57374 9.85058C9.57756 10.1683 9.48969 10.4787 9.34068 10.7706C9.22607 10.9886 9.29866 11.1069 9.55464 11.1216C9.69218 11.129 9.83354 11.1253 9.9749 11.1253L12.5309 11.1105C13.039 11.1069 13.5472 11.1032 14.0553 11.1142C14.1272 11.1196 14.1993 11.1071 14.2648 11.078C14.3303 11.0489 14.3871 11.0042 14.4297 10.948C14.6666 10.6672 14.9684 10.4639 15.3085 10.3124L15.4613 10.2644ZM17.8377 11.9345C17.8606 12.5479 17.257 12.9949 16.7488 12.9986C16.6053 13.0007 16.4628 12.9746 16.3301 12.9217C16.1973 12.8689 16.0771 12.7905 15.9766 12.6913C15.8762 12.5921 15.7977 12.4742 15.7459 12.3447C15.6941 12.2153 15.67 12.0769 15.6752 11.9382C15.702 11.2953 16.0764 10.9332 16.745 10.8962C17.3181 10.8667 17.8339 11.3803 17.8377 11.9345Z" fill="white"/>
</g>
<defs>
<clipPath id="clip0_1656_951">
<rect width="23" height="14" fill="white" transform="matrix(-1 0 0 1 23 0)"/>
</clipPath>
</defs>
</svg>
